<?xml version="1.0" encoding="UTF-8"?>
<svg id="a" data-name="Layer 1" xmlns="http://www.w3.org/2000/svg" viewBox="0 0 7000 4000">
  <defs>
    <style>
      .d {
        fill: #006;
      }

      .d, .e, .f, .g, .h, .i {
        stroke-width: 0px;
      }

      .e {
        fill: none;
      }

      .j {
        clip-path: url(#b);
      }

      .f, .g, .h, .i {
        fill-rule: evenodd;
      }

      .f, .g, .i {
        opacity: .15;
      }

      .f, .h {
        fill: #00a5fe;
      }

      .g {
        fill: blue;
      }

      .k {
        clip-path: url(#c);
      }

      .h {
        opacity: .1;
      }

      .i {
        fill: aqua;
      }
    </style>
    <clipPath id="b">
      <rect class="e" width="7000" height="4000"/>
    </clipPath>
    <clipPath id="c">
      <rect class="e" width="7000" height="4000"/>
    </clipPath>
  </defs>
  <g class="j">
    <g class="k">
      <rect class="d" width="7000" height="4000"/>
      <path class="g" d="M0,0v722.11c356.29,213.37,534.6,429.5,534.6,648.5,0,232.72-179.81,415.43-534.6,550.81v2078.59h4366.3c1275.07-544.09,1915.91-1268.03,1915.91-2168.36,0-654.54-305.06-1265.07-914-1831.64H0Z"/>
      <path class="g" d="M0,0v494.42c356.29,224.93,534.6,452.75,534.6,683.61,0,245.33-179.81,437.93-534.6,580.63v2241.34h4252.01c1351.12-578.93,2030.19-1358.94,2030.19-2335.98,0-588.4-221.88-1143.06-664.84-1664.02H0Z"/>
      <path class="g" d="M0,0v1363.24c356.29,238,534.6,479.09,534.6,723.37,0,259.6-179.81,463.4-534.6,614.41v1298.98h5769.42c341.52-413.45,512.79-879.99,512.79-1399.11,0-950.06-516.55-1816.99-1547.16-2600.89H0Z"/>
      <path class="g" d="M0,0v1551.56c201.46,176.64,302.52,354.98,302.52,535.05,0,191.21-101.53,352.14-302.52,484.02v1429.37h5748.71c355.31-413.45,533.49-879.99,533.49-1399.11,0-950.06-537.42-1816.99-1609.63-2600.89H0Z"/>
      <path class="g" d="M0,0v763.06c1323.27,430.8,1985.79,871.68,1985.79,1323.55,0,301.95-264.2,528.42-784.37,684.13-313.02,89.41-712.92,152.35-1201.42,188.8v1040.46h7000V346.87c-139.02-117.37-289.73-233-452.32-346.87H0Z"/>
      <path class="f" d="M0,0v4000h4178.72c70.89-131.57,126.7-269.09,167.21-412.63C4701.88,2326.17,3865.06,1130.21,1842.53,0H0Z"/>
      <path class="f" d="M0,0v4000h4137.29c112.59-181.4,197.77-374.14,255.37-578.22C4731.71,2220.49,4094.81,1079.77,2487.26,0H0Z"/>
      <path class="f" d="M0,0v4000h4205.27c188.52-1319.99-698.32-2564.24-2654.9-3732.25C1402.33,179,1246.03,89.73,1082.07,0H0Z"/>
      <path class="f" d="M0,0v4000h4204.31c181.31-1320.66-754.3-2569.19-2801.02-3745.1C1256.82,170.39,1102.76,85.43,941.49,0H0Z"/>
      <path class="f" d="M0,0v3121.82c51.85,118.5,62.21,234.07,30.43,346.66-7.98,28.28-18.14,55.69-30.43,82.23v449.29h6141.08c71.2-1259.78-924.49-2457.18-2981.95-3591.72-243.54-134.86-506.75-270.96-789.07-408.28H0Z"/>
      <path class="i" d="M1875.26,4000C1680.24,3113.95,1054.89,2200.73,0,1260.57v2739.43h1875.26Z"/>
      <path class="i" d="M2143.32,4000C2064.43,2884.35,1349.27,1733.2,0,547v3453h2143.32Z"/>
      <path class="i" d="M1184.3,4000C961.54,3382.46,566.83,2756.79,0,2123.01v1876.99h1184.3Z"/>
      <path class="i" d="M1126.82,4000C902.71,3426.28,527.18,2844.5,0,2254.7v1745.3h1126.82Z"/>
      <path class="i" d="M3268.81,4000c-400.72-687.14-1019.26-1387.19-1855.51-2100.08C1006.47,1551.51,535.09,1191,0,818.54v3181.46h3268.81Z"/>
      <path class="h" d="M7000,4000v-722.1c-356.29-213.37-534.6-429.49-534.6-648.5,0-232.73,179.81-415.44,534.6-550.81V0H2633.7C1358.63,544.09,717.79,1268.04,717.79,2168.37c0,654.54,305.06,1265.07,914,1831.63h5368.2Z"/>
      <path class="h" d="M7000,4000v-494.41c-356.29-224.93-534.6-452.75-534.6-683.61,0-245.33,179.81-437.93,534.6-580.63V0H2747.98C1396.86,578.93,717.79,1358.95,717.79,2335.98c0,588.4,221.88,1143.06,664.84,1664.02h5617.37Z"/>
      <path class="h" d="M7000,4000v-1363.24c-356.29-238-534.6-479.09-534.6-723.37,0-259.6,179.81-463.4,534.6-614.41V0H1230.58c-341.52,413.46-512.79,880-512.79,1399.12,0,950.06,516.55,1816.99,1547.16,2600.88h4735.05Z"/>
      <path class="h" d="M7000,4000v-1551.56c-201.46-176.64-302.52-354.97-302.52-535.05,0-191.22,101.53-352.14,302.52-484.02V0H1251.28c-355.31,413.46-533.49,880-533.49,1399.12,0,950.06,537.41,1816.99,1609.63,2600.88h4672.58Z"/>
      <path class="h" d="M7000,4000v-763.05c-1323.27-430.8-1985.79-871.68-1985.79-1323.55,0-301.95,264.2-528.43,784.38-684.12,313.02-89.42,712.92-152.35,1201.42-188.8V0H0v3653.14c139.02,117.37,289.73,233,452.32,346.86h6547.68Z"/>
      <path class="h" d="M7000,4000V0H2821.28c-70.89,131.58-126.7,269.1-167.21,412.64-355.95,1261.19,480.87,2457.16,2503.4,3587.36h1842.53Z"/>
      <path class="h" d="M7000,4000V0H2862.7c-112.59,181.41-197.77,374.14-255.37,578.22-339.05,1201.29,297.85,2342.01,1905.4,3421.78h2487.26Z"/>
      <path class="h" d="M7000,4000V0H2794.72c-188.52,1320,698.32,2564.24,2654.9,3732.25,148.04,88.76,304.34,178.02,468.3,267.75h1082.07Z"/>
      <path class="h" d="M7000,4000V0H2795.69c-181.31,1320.66,754.3,2569.2,2801.03,3745.11,146.46,84.5,300.53,169.47,461.79,254.89h941.5Z"/>
      <path class="h" d="M7000,4000V878.18c-51.85-118.5-62.21-234.07-30.43-346.66,7.98-28.28,18.14-55.69,30.43-82.23V0H858.92c-71.2,1259.79,924.49,2457.18,2981.95,3591.73,243.54,134.86,506.75,270.96,789.07,408.27h2370.06Z"/>
      <path class="h" d="M5124.74,0c195.02,886.05,820.37,1799.27,1875.26,2739.44V0h-1875.26Z"/>
      <path class="h" d="M4856.67,0c78.89,1115.65,794.05,2266.8,2143.33,3453V0h-2143.33Z"/>
      <path class="h" d="M5815.7,0c222.76,617.54,617.46,1243.22,1184.3,1877V0h-1184.3Z"/>
      <path class="h" d="M5873.18,0c224.11,573.72,599.64,1155.5,1126.82,1745.31V0h-1126.82Z"/>
      <path class="h" d="M3731.19,0c400.72,687.15,1019.26,1387.19,1855.51,2100.08,406.83,348.41,878.21,708.92,1413.3,1081.39V0h-3268.81Z"/>
    </g>
  </g>
</svg>